<?xml version="1.0" encoding="utf-8"?>
<!-- Generator: Adobe Illustrator 23.0.5, SVG Export Plug-In . SVG Version: 6.00 Build 0)  -->
<svg version="1.1" id="Capa_1" xmlns="http://www.w3.org/2000/svg" xmlns:xlink="http://www.w3.org/1999/xlink" x="0px" y="0px"
	 viewBox="0 0 855.8 712.7" style="enable-background:new 0 0 855.8 712.7;" xml:space="preserve">
<style type="text/css">
	.st0{fill:#FFFFFF;}
	.st1{fill:none;stroke:#FFFFFF;stroke-width:4;stroke-miterlimit:10;}
</style>
<g>
	<path class="st0" d="M15.4,566.5h30.7c0,0,25.6-343.3,379.2-343.3v-35.9C425.3,187.3,41,187.3,15.4,566.5z"/>
</g>
<line class="st1" x1="131.7" y1="300.9" x2="417.6" y2="579.3"/>
<polyline class="st1" points="15.4,566.5 425.3,576.7 425.3,187.3 "/>
<g>
	<path class="st0" d="M456.1,130.9V177c0,0,128.1-10.2,230.6,87.1l30.7-25.6C717.4,238.5,620.1,130.9,456.1,130.9z"/>
</g>
<polyline class="st1" points="684.1,261.6 456.1,489.6 458.6,177 "/>
<g>
	<path class="st0" d="M671.3,325.7c0,0,102.5,82,112.7,251.1h30.7c0,0-5.1-164-123-276.7L671.3,325.7z"/>
</g>
<polyline class="st1" points="789.2,574.2 425.3,576.7 673.9,328.2 "/>
<g>
	<circle class="st0" cx="297.2" cy="341" r="30.7"/>
</g>
<g>
	<circle class="st0" cx="343.3" cy="428.1" r="30.7"/>
</g>
<g>
	<circle class="st0" cx="256.2" cy="525.5" r="30.7"/>
</g>
<g>
	<circle class="st0" cx="164" cy="494.8" r="30.7"/>
</g>
<g>
	<circle class="st0" cx="512.4" cy="351.3" r="30.7"/>
</g>
<g>
	<circle class="st0" cx="522.7" cy="259" r="30.7"/>
</g>
<g>
	<circle class="st0" cx="655.9" cy="464" r="30.7"/>
</g>
<g>
	<circle class="st0" cx="573.9" cy="515.3" r="30.7"/>
</g>
<g>
	<circle class="st0" cx="176.8" cy="415.3" r="12.8"/>
</g>
<g>
	<circle class="st0" cx="243.4" cy="461.4" r="12.8"/>
</g>
<g>
	<circle class="st0" cx="187" cy="543.4" r="12.8"/>
</g>
<g>
	<circle class="st0" cx="376.6" cy="353.8" r="12.8"/>
</g>
<g>
	<circle class="st0" cx="392" cy="487.1" r="12.8"/>
</g>
<g>
	<circle class="st0" cx="586.7" cy="307.7" r="12.8"/>
</g>
<g>
	
		<ellipse transform="matrix(0.3827 -0.9239 0.9239 0.3827 118.8312 588.2435)" class="st0" cx="499.6" cy="205.2" rx="12.8" ry="12.8"/>
</g>
<g>
	<circle class="st0" cx="612.4" cy="251.3" r="12.8"/>
</g>
<g>
	<circle class="st0" cx="494.5" cy="410.2" r="12.8"/>
</g>
<g>
	<circle class="st0" cx="530.4" cy="543.4" r="12.8"/>
</g>
<g>
	<circle class="st0" cx="658.5" cy="548.6" r="12.8"/>
</g>
<g>
	<circle class="st0" cx="704.6" cy="497.3" r="12.8"/>
</g>
<g>
	<path class="st0" d="M547.6,120.9c0,0,17.2-32.2,12.2-60.4S553.1,22.8,572,0c0,0-3.2,28.4,10,56.5
		C591.4,76.7,547.6,120.9,547.6,120.9z"/>
</g>
<g>
	<path class="st0" d="M603,145c0,0,26.7-28.8,23.2-63.2s13.5-62.2,13.5-62.2s-38.2,12.5-33.8,55.6C610.1,118.2,603,145,603,145z"/>
</g>
<g>
	<path class="st0" d="M682,30.7c0,0-39.6,38.7-27.5,72.3s-3.4,52.5-3.4,52.5s40.4-30.1,28.4-63.7S682,30.7,682,30.7z"/>
</g>
<line class="st1" x1="696.9" y1="663.9" x2="855.8" y2="663.9"/>
<line class="st1" x1="0" y1="661.3" x2="158.9" y2="661.3"/>
<g>
	<g>
		<path class="st0" d="M221.5,710.8v-94.7h-17.8v-12.9h50.4v12.9h-17.8v94.7H221.5z"/>
		<path class="st0" d="M301.5,639.4v71.4H288v-7.7h-0.3c-3.6,5.9-8.2,8.8-13.7,8.8c-5.1,0-9.3-1.8-12.5-5.4c-3.2-3.6-4.8-8.6-4.8-15
			v-52h13.5v51.1c0,6.8,2.4,10.1,7.2,10.1c2.8,0,5.3-1.2,7.4-3.6c2.1-2.4,3.2-4,3.2-4.8v-52.8H301.5z"/>
		<path class="st0" d="M321.3,710.8V603.2h15.7c10.7,0,19.1,2.6,25.4,7.9s9.4,12.6,9.4,21.9c0,9.5-2.9,17-8.7,22.4
			c-5.8,5.5-13.8,8.2-23.9,8.2h-3.1v47.2H321.3z M336.2,650.7h2.6c12.1,0,18.2-6.2,18.2-18.5c0-11.1-6.9-16.4-20.8-16.1V650.7z"/>
		<path class="st0" d="M415,694v12.4c-4.8,4.2-10.1,6.3-15.8,6.3c-7.8,0-13.8-3.3-18.1-9.8c-4.3-6.5-6.4-15.8-6.4-28
			c0-11.9,1.9-21.1,5.6-27.7c3.8-6.6,9-9.9,15.7-9.9c14,0,20.8,13.5,20.6,40.4h-28.4c0,15.5,4.6,23.2,13.7,23.2
			C406.7,701.1,411.1,698.7,415,694z M388,668.5h15c0-13.3-2.6-20-7.8-20C390.4,648.5,388,655.1,388,668.5z"/>
		<path class="st0" d="M476.3,710.8h-13.5v-5.5h-0.3c-3.2,4.4-7.3,6.6-12.3,6.6c-6,0-11.2-3.3-15.4-9.9c-4.2-6.6-6.3-15.5-6.3-26.7
			c0-11.2,2.1-20.3,6.3-27.3c4.2-7,9.5-10.5,16.1-10.5c4.6,0,8.5,1.9,11.9,5.8v-40.1h13.5V710.8z M462.8,692.5v-36.1
			c-1.8-4.7-4.7-7.1-8.8-7.1c-3.6,0-6.4,2.3-8.5,6.9c-2.1,4.6-3.1,11-3.1,19.4c0,15.8,3.6,23.6,10.9,23.6c2.7,0,5-1,6.8-3
			C461.9,694.3,462.8,693.1,462.8,692.5z"/>
		<path class="st0" d="M499.7,616.2c-2.1,0-4-0.7-5.5-2.1s-2.3-3.1-2.3-5.1c0-2,0.8-3.8,2.3-5.2c1.5-1.4,3.4-2.1,5.5-2.1
			s4,0.7,5.5,2.1c1.5,1.4,2.3,3.1,2.3,5.2c0,2-0.8,3.7-2.3,5.1S501.8,616.2,499.7,616.2z M492.9,710.8v-71.4h13.5v71.4H492.9z"/>
		<path class="st0" d="M568.3,710.8h-13.5v-5.5h-0.3c-3.2,4.4-7.3,6.6-12.3,6.6c-6,0-11.2-3.3-15.4-9.9c-4.2-6.6-6.3-15.5-6.3-26.7
			c0-11.2,2.1-20.3,6.3-27.3c4.2-7,9.5-10.5,16.1-10.5c4.6,0,8.5,1.9,11.9,5.8v-40.1h13.5V710.8z M554.8,692.5v-36.1
			c-1.8-4.7-4.7-7.1-8.8-7.1c-3.6,0-6.4,2.3-8.5,6.9c-2.1,4.6-3.1,11-3.1,19.4c0,15.8,3.6,23.6,10.9,23.6c2.7,0,5-1,6.8-3
			C553.9,694.3,554.8,693.1,554.8,692.5z"/>
		<path class="st0" d="M606.1,712.7c-7.4,0-13.2-3.3-17.6-10s-6.5-15.9-6.5-27.6c0-11.7,2.2-20.9,6.5-27.6
			c4.3-6.7,10.2-10.1,17.6-10.1c7.4,0,13.3,3.4,17.6,10.1c4.3,6.7,6.5,15.9,6.5,27.6c0,11.7-2.2,20.9-6.5,27.6
			C619.3,709.4,613.5,712.7,606.1,712.7z M605.9,649.4c-6.7,0-10,8.6-10,25.7c0,17.1,3.5,25.6,10.4,25.6c6.7,0,10-8.5,10-25.6
			C616.3,658,612.9,649.4,605.9,649.4z"/>
	</g>
</g>
</svg>
