<?xml version="1.0"?>
<svg xmlns="http://www.w3.org/2000/svg" id="icons" enable-background="new 0 0 64 64" height="512px" viewBox="0 0 64 64" width="512px" class=""><g><path d="m8.553 63.895c.143.071.296.105.446.105.367 0 .72-.202.896-.553l5.607-11.214 20.144 7.006c.001.001.003.001.005.002l.946.329-1.491 2.982c-.247.494-.047 1.095.447 1.342.143.072.296.106.446.106.367 0 .72-.202.896-.553l2-4c.009-.018.007-.036.015-.053.01-.023.026-.042.035-.066.015-.043.009-.087.018-.131.015-.067.028-.133.027-.2 0-.064-.012-.124-.023-.187-.013-.063-.024-.124-.049-.184s-.058-.11-.093-.164-.068-.105-.114-.152-.1-.083-.154-.121c-.038-.025-.065-.063-.108-.084-.021-.01-.043-.009-.063-.018-.021-.008-.034-.025-.056-.032l-.576-.2 10.69-11.855h.556c1.654 0 3-1.346 3-3 2.206 0 4-1.794 4-4 0-1.201-.543-2.267-1.383-3 .84-.734 1.383-1.8 1.383-3.001 0-1.2-.542-2.266-1.382-3 .84-.734 1.382-1.8 1.382-3s-.542-2.266-1.382-3c.84-.733 1.382-1.799 1.382-2.999 0-2.206-1.794-4-4-4v-14c0-1.654-1.346-3-3-3h-24c-1.654 0-3 1.346-3 3v17.11c-1.271-1.3-3.042-2.11-5-2.11-.553 0-1 .448-1 1v31.289l-.672-.233c-.045-.016-.09-.01-.135-.019-.065-.013-.128-.026-.193-.026s-.127.012-.19.024c-.063.013-.123.024-.183.049-.058.023-.107.057-.16.091-.056.035-.108.07-.157.116-.046.045-.081.098-.118.152-.027.038-.064.066-.086.109l-6 12c-.248.495-.047 1.095.447 1.343zm43.447-22.895h-1c-1.103 0-2-.897-2-2 0-1.101.895-1.997 1.995-2 .002 0 .003.001.005.001s.003-.001.005-.001h.995c1.103 0 2 .897 2 2s-.897 2-2 2zm2-8.001c0 1.103-.897 2-2 2-.002 0-.003.001-.005.001h-.995c-.002 0-.003 0-.005 0-1.1-.002-1.995-.898-1.995-1.999 0-1.103.897-2 2-2 .004 0 .006-.002.01-.002h.99c1.103 0 2 .897 2 2zm-3-4c-.002 0-.004.001-.007.001-1.099-.004-1.993-.899-1.993-2 0-1.103.897-2 2-2h1c.002 0 .004-.001.007-.001 1.099.004 1.993.899 1.993 2 0 1.103-.897 2-2 2zm3-7.999c0 1.102-.895 1.997-1.995 2-.002 0-.003 0-.005 0-.004 0-.006.002-.01.002h-.985c-.002-.001-.003-.002-.005-.002-1.103 0-2-.897-2-2s.897-2 2-2h1c1.103 0 2 .897 2 2zm-30-18c0-.551.448-1 1-1h24c.552 0 1 .449 1 1v14.142c-1.721.447-3 2-3 3.858 0 1.201.543 2.267 1.383 3-.84.734-1.383 1.8-1.383 3s.542 2.266 1.382 3c-.84.734-1.382 1.8-1.382 3s.542 2.266 1.382 2.999c-.84.735-1.382 1.801-1.382 3.001 0 1.858 1.279 3.411 3 3.858v.142c0 .552-.448 1-1 1h-24c-.552 0-1-.448-1-1zm-6 17.101c2.279.465 4 2.484 4 4.899v18c0 1.654 1.346 3 3 3h20.752l-10.05 11.143-17.702-6.158z" data-original="#000000" class="active-path" data-old_color="#000000" fill="#B9B4B4A3"/><path d="m17.02 57c-.552 0-.994.447-.994 1s.452 1 1.005 1c.552 0 1-.447 1-1s-.448-1-1-1z" data-original="#000000" class="active-path" data-old_color="#000000" fill="#B9B4B4A3"/><path d="m37 37c-1.654 0-3 1.346-3 3s1.346 3 3 3 3-1.346 3-3-1.346-3-3-3zm0 4c-.552 0-1-.448-1-1s.448-1 1-1 1 .448 1 1-.448 1-1 1z" data-original="#000000" class="active-path" data-old_color="#000000" fill="#B9B4B4A3"/><path d="m34.03 6c.552 0 1-.448 1-1s-.448-1-1-1h-.01c-.552 0-.994.448-.994 1s.452 1 1.004 1z" data-original="#000000" class="active-path" data-old_color="#000000" fill="#B9B4B4A3"/><path d="m37 6h3c.553 0 1-.448 1-1s-.447-1-1-1h-3c-.553 0-1 .448-1 1s.447 1 1 1z" data-original="#000000" class="active-path" data-old_color="#000000" fill="#B9B4B4A3"/><path d="m29 31.004h16c.553 0 1-.448 1-1s-.447-1-1-1v-1.001c0-3.597-2.387-6.646-5.659-7.649.098-.267.159-.551.159-.851 0-1.378-1.121-2.5-2.5-2.5s-2.5 1.122-2.5 2.5c0 .3.062.584.159.851-3.272 1.003-5.659 4.052-5.659 7.649v1.001c-.553 0-1 .448-1 1s.447 1 1 1zm7.5-11.501c0-.276.225-.5.5-.5s.5.224.5.5-.225.5-.5.5-.5-.224-.5-.5zm-5.5 8.5c0-3.309 2.691-6 6-6s6 2.691 6 6v1.001h-12z" data-original="#000000" class="active-path" data-old_color="#000000" fill="#B9B4B4A3"/><path d="m32.001 19.004c.553 0 1-.448 1-1v-5.004c0-.552-.447-1-1-1s-1 .448-1 1v5.004c0 .552.447 1 1 1z" data-original="#000000" class="active-path" data-old_color="#000000" fill="#B9B4B4A3"/><path d="m42.001 19.004c.553 0 1-.448 1-1v-5.004c0-.552-.447-1-1-1s-1 .448-1 1v5.004c0 .552.447 1 1 1z" data-original="#000000" class="active-path" data-old_color="#000000" fill="#B9B4B4A3"/><path d="m37 16c.553 0 1-.448 1-1v-2c0-.552-.447-1-1-1s-1 .448-1 1v2c0 .552.447 1 1 1z" data-original="#000000" class="active-path" data-old_color="#000000" fill="#B9B4B4A3"/></g> </svg>
