<?xml version="1.0"?>
<svg xmlns="http://www.w3.org/2000/svg" height="512px" viewBox="-41 0 480 480" width="512px" class=""><g><path d="m199.101562 480c108.550782-.488281 196.894532-87.46875 199.0625-195.996094 2.171876-108.527344-82.621093-198.976562-191.0625-203.804687v-72.199219c0-4.417969-3.582031-8-8-8-4.417968 0-8 3.582031-8 8v72.199219c-108.441406 4.828125-193.234374 95.277343-191.0624995 203.804687 2.1718755 108.527344 90.5156255 195.507813 199.0624995 195.996094zm0-304c4.417969 0 8-3.582031 8-8v-5.777344c6.273438 3.621094 9.332032 11.003906 7.457032 18-1.875 6.992188-8.214844 11.859375-15.457032 11.859375-7.238281 0-13.578124-4.867187-15.453124-11.859375-1.875-6.996094 1.183593-14.378906 7.453124-18v5.777344c0 4.417969 3.582032 8 8 8zm-8-79.800781v48.9375c-15.601562 4.027343-25.773437 19.03125-23.742187 35.015625 2.027344 15.984375 15.628906 27.96875 31.742187 27.96875 16.117188 0 29.714844-11.984375 31.746094-27.96875s-8.140625-30.988282-23.746094-35.015625v-48.9375c99.96875 4.351562 178.132813 87.789062 175.957032 187.828125-2.175782 100.039062-83.894532 180-183.957032 180-100.058593 0-181.777343-79.960938-183.953124-180-2.175782-100.039063 75.988281-183.476563 175.953124-187.828125zm0 0" data-original="#000000" class="active-path" data-old_color="#000000" fill="#B9B4B4A3"/><path d="m146.304688 398.398438c3.53125 2.652343 8.546874 1.9375 11.199218-1.597657l96-128c2.648438-3.535156 1.933594-8.550781-1.601562-11.199219-3.535156-2.652343-8.546875-1.9375-11.199219 1.597657l-96 128c-2.652344 3.535156-1.933594 8.550781 1.601563 11.199219zm0 0" data-original="#000000" class="active-path" data-old_color="#000000" fill="#B9B4B4A3"/><path d="m159.101562 320c17.675782 0 32-14.328125 32-32s-14.324218-32-32-32c-17.671874 0-32 14.328125-32 32s14.328126 32 32 32zm0-48c8.839844 0 16 7.164062 16 16s-7.160156 16-16 16c-8.835937 0-16-7.164062-16-16s7.164063-16 16-16zm0 0" data-original="#000000" class="active-path" data-old_color="#000000" fill="#B9B4B4A3"/><path d="m207.101562 368c0 17.671875 14.328126 32 32 32 17.675782 0 32-14.328125 32-32s-14.324218-32-32-32c-17.671874 0-32 14.328125-32 32zm48 0c0 8.835938-7.160156 16-16 16-8.835937 0-16-7.164062-16-16s7.164063-16 16-16c8.839844 0 16 7.164062 16 16zm0 0" data-original="#000000" class="active-path" data-old_color="#000000" fill="#B9B4B4A3"/></g> </svg>
